<?xml version="1.0" standalone="no"?>
<!DOCTYPE svg PUBLIC "-//W3C//DTD SVG 20010904//EN"
 "http://www.w3.org/TR/2001/REC-SVG-20010904/DTD/svg10.dtd">
<svg version="1.0" xmlns="http://www.w3.org/2000/svg"
 width="120.000000pt" height="120.000000pt" viewBox="0 0 120.000000 120.000000"
 preserveAspectRatio="xMidYMid meet">
<metadata>
Created by potrace 1.14, written by Peter Selinger 2001-2017
</metadata>
<g transform="translate(0.000000,120.000000) scale(0.100000,-0.100000)"
fill="#000000" stroke="none">
<path d="M25 1108 c-20 -67 -28 -210 -14 -262 6 -22 19 -51 29 -63 17 -22 17
-25 -7 -100 -32 -99 -40 -246 -17 -325 43 -147 164 -241 352 -273 17 -3 46 -7
63 -10 37 -7 282 -7 324 -1 17 2 47 7 67 10 303 43 429 247 354 571 -2 11 -11
38 -19 60 -13 36 -13 42 3 65 9 14 23 42 29 62 14 42 13 165 -1 217 -5 18 -11
43 -14 54 -8 43 -28 52 -86 38 -52 -13 -164 -63 -183 -82 -14 -14 -31 -11 -86
16 -28 13 -67 27 -86 30 -19 3 -39 7 -43 10 -13 8 -131 8 -180 1 -25 -4 -77
-21 -115 -37 l-71 -29 -69 35 c-73 37 -127 55 -182 62 -31 3 -33 1 -48 -49z"/>
</g>
</svg>
